<svg width="18" height="18" viewBox="0 0 18 18" fill="none" xmlns="http://www.w3.org/2000/svg">
<g clip-path="url(#clip0_6_64)">
<path d="M4.95822 0.694544C4.52822 0.754544 4.08489 1.02788 3.83489 1.38954C3.73822 1.52954 0.781556 7.43454 0.743222 7.56621C0.689889 7.74621 0.718222 7.99621 0.813222 8.17288C0.876556 8.29288 1.05489 8.46454 1.17156 8.52121C1.36489 8.61454 1.38322 8.61621 2.71989 8.61621H3.94989L3.95322 7.24454L3.95822 5.87454L3.99822 5.79954C4.05156 5.69788 4.14156 5.60621 4.24156 5.55288L4.32489 5.50788H4.84989C5.37156 5.50788 5.37489 5.50788 5.45656 5.54788C5.55656 5.59621 5.65156 5.68954 5.70322 5.78621L5.74156 5.85788L5.74656 7.23621L5.74989 8.61621H6.42156C7.16656 8.61621 7.24156 8.60788 7.42156 8.51288C7.47822 8.48288 7.56822 8.41454 7.61989 8.36288C7.71322 8.26954 7.75989 8.17788 9.33322 5.03288C10.2699 3.15954 10.9616 1.75788 10.9749 1.70288C11.0832 1.28621 10.8166 0.836211 10.3849 0.709544C10.3032 0.686211 10.0266 0.682878 7.65156 0.684544C6.19822 0.686211 4.98656 0.691211 4.95822 0.694544Z" fill="#FC5C04"/>
<path d="M13.2 1.72508C13.0367 1.76175 12.8983 1.83842 12.7833 1.95342C12.6817 2.05342 12.6683 2.08175 10.9367 5.54342L9.19165 9.03342L10.9367 12.5251C12.6317 15.9118 12.685 16.0184 12.7783 16.1118C13.11 16.4468 13.6367 16.4484 13.9667 16.1168L14.075 16.0068L15.6717 12.8084C17.4883 9.16842 17.355 9.46842 17.355 9.03342C17.355 8.59842 17.4867 8.89675 15.6783 5.27508C14.66 3.23842 14.0633 2.06175 14.02 2.00675C13.84 1.78008 13.4917 1.66008 13.2 1.72508Z" fill="white"/>
<path d="M1.335 9.47626C1.06 9.54959 0.84 9.75626 0.746667 10.0313C0.695 10.1813 0.696667 10.3979 0.748334 10.5463C0.796667 10.6846 3.70833 16.5079 3.8 16.6496C3.895 16.7946 4.13 17.0263 4.28167 17.1246C4.43 17.2196 4.62333 17.3046 4.80833 17.3546L4.94167 17.3913L7.58333 17.3963C9.505 17.3996 10.2517 17.3963 10.325 17.3829C10.63 17.3246 10.8867 17.0863 10.975 16.7763C11.0117 16.6513 11.0117 16.4646 10.975 16.3413C10.96 16.2879 10.2217 14.7929 9.33333 13.0179L7.72 9.78959L7.61 9.68792C7.49167 9.57626 7.345 9.49792 7.20333 9.46792C7.14667 9.45626 6.86667 9.44959 6.43333 9.44959H5.75L5.74667 10.8113C5.74167 12.1646 5.74167 12.1746 5.70667 12.2513C5.655 12.3629 5.56167 12.4579 5.45333 12.5113L5.35833 12.5579H4.85H4.34167L4.25667 12.5129C4.12833 12.4463 4.07333 12.3913 4.01833 12.2796L3.96667 12.1779V10.8129V9.44959L2.69667 9.45126C1.64167 9.45126 1.41 9.45626 1.335 9.47626Z" fill="white"/>
</g>
<defs>
<clipPath id="clip0_6_64">
<rect width="18" height="18" fill="white"/>
</clipPath>
</defs>
</svg>
